<?xml version="1.0" encoding="UTF-8"?>
<svg id="Layer_2" xmlns="http://www.w3.org/2000/svg" baseProfile="tiny" version="1.2" viewBox="0 0 3983 4700.2">
  <!-- Generator: Adobe Illustrator 29.4.0, SVG Export Plug-In . SVG Version: 2.1.0 Build 152)  -->
  <g id="Layer_2-2">
    <g>
      <path d="M532.1,3991.4c-120-258.4-136-549.5-45-819.7,117.5-349.1,399.9-616.2,755.3-714.5l94.2,340.5c-242.2,67-434.6,248.9-514.6,486.7-61.9,184-51,382.2,30.6,558.2l-320.5,148.8h0Z" fill="#d0e7ef"/>
      <path d="M550.6,4458.2c-38.6,0-75.8-21.2-94.5-57.9-104.1-204.5-22.5-455.6,182-559.7,204.5-104.1,455.6-22.5,559.7,182,26.6,52.2,5.8,116-46.4,142.6-52.2,26.5-116,5.8-142.6-46.4-24.7-48.6-66.9-84.7-118.8-101.5-51.9-16.9-107.2-12.5-155.8,12.2-100.3,51.1-140.4,174.3-89.3,274.6,26.6,52.2,5.8,116-46.4,142.6-15.4,7.8-31.8,11.6-48,11.6h0Z" fill="#292a2e"/>
      <g>
        <path d="M3290.3,2653.1c-149,127.1-327.7,211.7-521.8,246.5l-62.2-347.8c153.3-27.4,292.5-100.7,402.6-211.9,136.5-138,214-320.8,218-514.8l353.2,7.4c-5.9,284.9-119.6,553.3-320.1,755.9-22.4,22.6-45.7,44.2-69.7,64.7h0Z" fill="#d0e7ef"/>
        <path d="M3781.6,1822.3c-73.4,62.6-165.4,97.4-263,99-111.2,1.7-216.3-39.9-296.1-117.3-79.8-77.4-124.7-181.2-126.4-292.3-.9-58.5,45.8-106.7,104.3-107.6,58.5-.9,106.7,45.8,107.6,104.3,1.8,112.6,94.8,202.7,207.3,201,54.5-.8,105.5-22.8,143.4-62,38-39.2,58.4-90.8,57.6-145.3-.9-58.5,45.8-106.7,104.3-107.6,58.5-.9,106.7,45.8,107.6,104.3,1.7,111.2-39.9,216.3-117.3,296.1-9.4,9.7-19.2,18.9-29.3,27.5h0Z" fill="#292a2e"/>
      </g>
      <g>
        <path d="M1005.1,2475.8l234.2,1324.7c62.5,353.5,369.7,611.1,728.6,611.1h0c349.4,0,651.2-244.4,723.8-586.2l286.7-1349.7H1005.1Z" fill="#d0e7ef"/>
        <ellipse cx="1991.8" cy="2475.8" rx="986.7" ry="291.7" fill="#344b51"/>
        <rect x="1533.8" y="3224.3" width="927.5" height="571" rx="118.5" ry="118.5" fill="#344b51"/>
      </g>
      <path d="M2652.7,2566.8c-.8,0-1.5,0-2.3-.2-44.4-8.9-128.3-46.9-127.5-126.8.3-32.8,14.8-60.5,41.3-79.9-11.9-21.2-17-47.8-10.9-79.4,16.8-87.3,104.7-102.6,148.9-98.5,6.5.6,11.2,6.3,10.6,12.8-.6,6.4-6.2,11.2-12.8,10.6h0c-4.3-.4-106.8-8.6-123.7,79.6-5,26.2-.9,46.9,8,63,43.5-21,103.2-21.1,130.6-.2,11.7,9,16.8,21.3,14.2,34.6-5.5,28.6-39,42.8-81.5,34.7-26-5-51.4-17.9-69.7-38-16.5,12.1-31.3,31.3-31.6,61.1-.8,80.4,107.6,103.4,108.7,103.6,6.3,1.3,10.4,7.5,9.2,13.8-1.1,5.6-6,9.4-11.5,9.4ZM2598.9,2367c16,15.5,36.8,23.9,53.1,27,28,5.4,51.2-1.5,54-16,.6-3,.5-7-5.5-11.5-17.7-13.6-63.9-15.7-101.6.6h0Z" fill="#fff"/>
      <path d="M1650,2478.7c-3.6,0-7.1-1.6-9.4-4.7-3.9-5.2-2.8-12.5,2.3-16.4h0c2.5-1.9,61.6-47.4,28-102.7-9.6-15.8-21.1-24.3-32.1-28.7-14.7,33.4-47.8,62.8-73.9,64.9-12.2,1-22.2-3.8-28.1-13.5-6.5-10.8-6.3-23.7.7-36.6,13.1-23.9,45.6-41.7,77.3-42.4,2.6,0,5.3,0,7.9.2,2.3-13.8.3-29.9-13-44.9-38.6-43.4-108.3-2.7-108.9-2.3-5.6,3.3-12.8,1.5-16.1-4.1-3.3-5.6-1.5-12.8,4.1-16.1,3.5-2.1,87.2-50.9,138.5,6.9,16.4,18.5,22.7,41.2,18.4,65.3,18.1,6.7,33.7,20,45.2,39,35.8,58.8-6.6,113.1-34,133.6-2.1,1.6-4.6,2.3-7,2.3h0ZM1614.8,2322.1c-25.5.8-48.8,15.9-56.6,30.2-2.9,5.3-3.3,9.7-1.3,13.1.6,1,1.6,2.6,6.1,2.3,14.7-1.2,38.9-20.8,51.8-45.6h0Z" fill="#fff"/>
      <g>
        <g>
          <path d="M2934.5,1501.9c60.1,424.7-338.4,689.5-865.7,764-527.2,74.6-983.5-69.4-1043.6-494.1-60.1-424.7,298.9-969.3,826.1-1043.9,527.2-74.6,1023.1,349.2,1083.1,773.9h0Z" fill="#d0e7ef"/>
          <path d="M1885.8,1124.6l543-76.8c170.2-24.1,327.7,94.4,351.8,264.6h0c24.1,170.2-94.4,327.7-264.6,351.8l-543,76.8c-170.2,24.1-327.7-94.4-351.8-264.6h0c-24.1-170.2,94.4-327.7,264.6-351.8Z" fill="#344b51"/>
        </g>
        <rect x="1802.9" y="399.5" width="42.9" height="432" transform="translate(-83.3 354.4) rotate(-10.8)" fill="#d0e7ef"/>
        <circle cx="1789.7" cy="434.8" r="78.4" fill="#292a2e"/>
        <g>
          <path d="M2083.8,1547.4c-7.4,0-14.8-2.3-21.1-7.1l-230.6-173.4c-15.5-11.7-18.7-33.7-7-49.3,11.7-15.5,33.8-18.7,49.3-7l230.6,173.4c15.5,11.7,18.7,33.7,7,49.3-6.9,9.2-17.5,14-28.2,14h0Z" fill="#fff"/>
          <path d="M1881.7,1576c-7.4,0-14.8-2.3-21.1-7.1-15.5-11.7-18.7-33.8-7-49.3l173.4-230.6c11.7-15.5,33.8-18.7,49.3-7,15.5,11.7,18.7,33.8,7,49.3l-173.4,230.6c-6.9,9.2-17.5,14-28.2,14h0Z" fill="#fff"/>
        </g>
        <g>
          <path d="M2584.5,1476.6c-7.4,0-14.8-2.3-21.1-7.1l-230.6-173.4c-15.5-11.7-18.7-33.7-7-49.3,11.7-15.5,33.7-18.7,49.3-7l230.6,173.4c15.5,11.7,18.7,33.7,7,49.3-6.9,9.2-17.5,14-28.2,14h0Z" fill="#fff"/>
          <path d="M2382.5,1505.2c-7.4,0-14.8-2.3-21.1-7.1-15.5-11.7-18.7-33.7-7-49.3l173.4-230.6c11.7-15.5,33.8-18.7,49.3-7,15.5,11.7,18.7,33.7,7,49.3l-173.4,230.6c-6.9,9.2-17.5,14-28.2,14h0Z" fill="#fff"/>
        </g>
        <path d="M2249.6,1837.2c12.9-17.2,31.2-29.2,52.4-34.3,24.1-5.8,49-1.8,70.1,11.1,21.1,12.9,35.9,33.3,41.7,57.4,3,12.7-4.8,25.4-17.5,28.5-12.7,3-25.4-4.8-28.5-17.5-5.8-24.4-30.4-39.5-54.8-33.6-11.8,2.8-21.8,10.1-28.2,20.5-6.4,10.4-8.3,22.6-5.5,34.4,3,12.7-4.8,25.4-17.5,28.5-12.7,3-25.4-4.8-28.5-17.5-5.8-24.1-1.8-49,11.1-70.1,1.6-2.6,3.3-5,5-7.4h0Z" fill="#292a2e"/>
      </g>
    </g>
  </g>
</svg>